<?xml version="1.0" encoding="utf-8"?>
<!-- Generator: Adobe Illustrator 23.0.2, SVG Export Plug-In . SVG Version: 6.00 Build 0)  -->
<svg version="1.1" id="Layer_1" xmlns="http://www.w3.org/2000/svg" xmlns:xlink="http://www.w3.org/1999/xlink" x="0px" y="0px"
	 viewBox="0 0 500 500" style="enable-background:new 0 0 500 500;" xml:space="preserve">
<style type="text/css">
	.st0{fill-rule:evenodd;clip-rule:evenodd;fill:#E20A16;}
	.st1{fill-rule:evenodd;clip-rule:evenodd;fill:#E7EFF6;}
	.st2{fill-rule:evenodd;clip-rule:evenodd;fill:#63ACE5;}
	.st3{fill:#3D3938;}
	.st4{fill:#005355;}
	.st5{fill:#8AAAE5;}
	.st6{fill-rule:evenodd;clip-rule:evenodd;fill:#231F20;}
	.st7{fill:#FFFFFF;}
	.st8{clip-path:url(#SVGID_2_);}
	.st9{fill-rule:evenodd;clip-rule:evenodd;fill:#2A4D69;}
	.st10{fill:#2A4D69;}
	.st11{clip-path:url(#SVGID_4_);}
	.st12{clip-path:url(#SVGID_6_);}
	.st13{fill-rule:evenodd;clip-rule:evenodd;fill:#FFFFFF;}
	.st14{clip-path:url(#SVGID_8_);}
	.st15{clip-path:url(#SVGID_10_);}
	.st16{clip-path:url(#SVGID_12_);}
	.st17{fill-rule:evenodd;clip-rule:evenodd;fill:#3D3938;}
	.st18{clip-path:url(#SVGID_14_);}
	.st19{clip-path:url(#SVGID_16_);}
	.st20{fill-rule:evenodd;clip-rule:evenodd;fill:#F2F1EF;}
	.st21{clip-path:url(#SVGID_18_);}
	.st22{clip-path:url(#SVGID_20_);}
	.st23{clip-path:url(#SVGID_22_);}
	.st24{clip-path:url(#SVGID_24_);}
	.st25{clip-path:url(#SVGID_26_);}
	.st26{fill:#B8E8FB;}
	.st27{fill:#4F4C4D;}
	.st28{fill-rule:evenodd;clip-rule:evenodd;fill:#9A684D;}
	.st29{fill-rule:evenodd;clip-rule:evenodd;fill:#B18E66;}
	.st30{fill-rule:evenodd;clip-rule:evenodd;fill:#DBB58E;}
	.st31{fill:#333333;}
</style>
<g transform="translate(-72.231 -111.05)">
	<g transform="matrix(.57785 0 0 -.57785 -65.553 392.03)">
		<path class="st0" d="M589.4,196.4c1.2,4.8,157.6-89.1,157.6-89.1s2.6,1.3,6.5-0.7c3.9-2-0.7-94.6-0.7-94.6l-168.2,93.8
			L589.4,196.4L589.4,196.4z"/>
		<path class="st1" d="M419.5,8.4c1.2,4.8,167.9,98,167.9,98S661.7,63,665.6,61c3.9-2-34.6-169.6-34.6-169.6L419.5,8.4L419.5,8.4z"
			/>
		<path class="st2" d="M334.7,59.8c1.2,4.8,244.1,141.3,244.1,141.3s2.6,1.3,6.5-0.7c3.9-2-0.7-94.6-0.7-94.6L419.5,8.4L334.7,59.8
			L334.7,59.8z"/>
		<path class="st3" d="M584.6,208.4c0.3-5.8-6.5-6-5.9-7.4c1.5-5.5,250.8-145.8,251.3-145.5l12.9,7.6L598.7,203.2L584.6,208.4
			L584.6,208.4z"/>
		<path class="st4" d="M428-24.3c0-5.3,169.3-119.7,319.6-158.9C868-214.6,857.3-76,856.4-77.9c-0.4-1.5,165.7-139.2,164.8-140.1
			l-47.7-30.8l-190.6-111c-2-2.7-5.7-3.2-9.9-0.8c-0.4,0.2-0.8,0.5-1.2,0.8L647.4-288L390.7-139.8c-4.3,2.5-35.9,19.6-57.6,33.3
			c-11.7,7.4-11.5,22.8,1.6,31.3C368.3-53.4,428-16.4,428-24.3L428-24.3z"/>
		<path class="st3" d="M805.5-313.2l-210,230l36.4-19.1V39.8l251.4,135.7c35.2-22.6,71-46.8,105.7-71.5
			c40.7-29,39.5-171.6,42.2-178.3c6.1-13.8,9.6-28.2,9.6-41.5c0-11.5,0.3-52.6-2-57.6c-0.5-1.8-1.3-3.2-2.4-4.2l0.3-0.9L805.5-313.2
			L805.5-313.2z"/>
		<path class="st5" d="M1028-170.5L803.8-302.4L610.3-91l21.6-11.3V39.8l240,129.5c37.4-24,75.9-49.9,113.4-76.6
			c13.2-9.4,25.9-67.1,26.4-82.2c0.3-10.1,6.2-82.3,7.3-85c4.8-10.9,7.8-22.7,7.8-33.4C1026.8-111.1,1030-171.7,1028-170.5
			L1028-170.5z"/>
		<path class="st6" d="M731.1-315.2l6.2,44.3c0,0,39.1,17.5,39.1-8.2C776.4-304.9,731.1-315.2,731.1-315.2z M447.9-150.4l6.2,44.3
			c0,0,39.1,17.5,39.1-8.2C493.2-140.1,447.9-150.4,447.9-150.4z"/>
		<path class="st3" d="M322.8,54c0.2,1.2,0.3,3.2,0.3,5.7l308.8-162.1V39.7l11.2,6.1c38.4-24.6,77.5-51,115.2-77.8
			c40.7-29,39.5-171.6,42.2-178.3c6.1-13.8,9.6-28.2,9.6-41.5c0-11.5,0.3-52.6-2-57.6c-1.6-5.8-7-7.7-13.4-4c-0.5,0.3-1,0.6-1.5,1
			l-150,86.5L333.5-47.3c-8.1,4.7-14.6,15.7-14.6,24.5C318.9-21.7,318.9,24.5,322.8,54L322.8,54z"/>
		<path class="st5" d="M631.9-102.4V39.3c40.4-25.6,82.1-53.6,122.8-82.6c13.2-9.4,25.9-67.1,26.4-82.2c0.3-10.1,6.2-82.3,7.3-85
			c4.8-10.9,7.8-22.7,7.8-33.4c0-3.3-0.8-35.6-1.2-52.5c-0.3-1.5-0.6-3.6-2.6-2.4c-1.1,0.8-149.3,86.1-149.3,86.1l-309,178.4
			c-0.6,0.4-1,0.6-1.4,0.9c-1.2,0.7-2.2,2.5-2.2,3.9c0,1-6.7,59.9-2.9,88.7C327.8,60.8,631.9-102.4,631.9-102.4L631.9-102.4z"/>
		<path class="st7" d="M759.6-164.5c-15.3,7.4-45.7,24.4-77.9,42.9c-0.1,13.9-2,96.7-2,105.8c26.8-14.8,86.5-32.7,87.1-139.7
			C767.3-159.5,766.6-167.8,759.6-164.5L759.6-164.5z"/>
		<g>
			<defs>
				<path id="SVGID_1_" d="M723.9-40.8c12.3-6.6,52.1-52.4,22.2-39.4C733.8-74.8,706-58.4,677.7-41c-0.2,11.1-2,23-2.9,31.1
					C698.1-22.9,717-37.1,723.9-40.8L723.9-40.8z"/>
			</defs>
			<use xlink:href="#SVGID_1_"  style="overflow:visible;fill:#2A4D69;"/>
			<clipPath id="SVGID_2_">
				<use xlink:href="#SVGID_1_"  style="overflow:visible;"/>
			</clipPath>
			<g transform="translate(-1692,-1584)" class="st8">
				<path class="st9" d="M2415.9,1543.2c12.3-6.6,52.1-52.4,22.2-39.4c-12.3,5.4-40.1,21.8-68.5,39.3c-0.2,11.1-2,23-2.9,31.1
					C2390.1,1561.1,2409,1546.9,2415.9,1543.2L2415.9,1543.2z"/>
				<path class="st10" d="M2119.9,1559.9c0-5.3,169.3-119.7,319.6-158.9c120.4-31.4,109.7,107.2,108.8,105.3
					c-0.4-1.5,165.7-139.2,164.8-140.1l-47.7-30.8l-190.6-111c-2-2.7-5.7-3.2-9.9-0.8c-0.4,0.2-0.8,0.5-1.2,0.8l-124.4,71.7
					l-256.7,148.2c-4.3,2.5-35.9,19.6-57.6,33.3c-11.7,7.4-11.5,22.8,1.6,31.3C2060.1,1530.8,2119.9,1567.9,2119.9,1559.9
					L2119.9,1559.9z"/>
				<path class="st10" d="M2497.9,1271l-210,230l36.4-19.1V1624l251.4,135.7c35.2-22.6,71-46.8,105.7-71.5
					c40.7-29,39.5-171.6,42.2-178.3c6.1-13.8,9.6-28.2,9.6-41.5c0-11.5,0.3-52.6-2-57.6c-0.5-1.8-1.3-3.2-2.4-4.2l0.3-0.9
					L2497.9,1271L2497.9,1271z"/>
				<path class="st10" d="M2719.7,1413.5l-224.3-131.8L2302,1493.1l21.6-11.3v142.1l240,129.5c37.4-24,75.9-49.9,113.4-76.6
					c13.2-9.4,25.9-67.1,26.4-82.2c0.3-10.1,6.2-82.3,7.3-85c4.8-10.9,7.8-22.7,7.8-33.4C2718.5,1472.9,2721.7,1412.4,2719.7,1413.5
					L2719.7,1413.5z"/>
				<path class="st10" d="M2014.8,1638c0.2,1.2,0.3,3.2,0.3,5.7l308.8-162.1v142.1l11.2,6.1c38.4-24.6,77.5-51,115.2-77.8
					c40.7-29,39.5-171.6,42.2-178.3c6.1-13.8,9.6-28.2,9.6-41.5c0-11.5,0.3-52.6-2-57.6c-1.6-5.8-7-7.7-13.4-4c-0.5,0.3-1,0.6-1.5,1
					l-150,86.5l-309.7,178.8c-8.1,4.7-14.6,15.7-14.6,24.5C2010.8,1562.3,2010.9,1608.5,2014.8,1638L2014.8,1638z"/>
				<path class="st10" d="M2323.7,1481.9v141.7c40.4-25.6,82.1-53.6,122.8-82.6c13.2-9.4,25.9-67.1,26.4-82.2
					c0.3-10.1,6.2-82.3,7.3-85c4.8-10.9,7.8-22.7,7.8-33.4c0-3.3-0.8-35.6-1.2-52.5c-0.3-1.5-0.6-3.6-2.6-2.4
					c-1.1,0.8-149.3,86.1-149.3,86.1L2026,1550c-0.6,0.4-1,0.6-1.4,0.9c-1.2,0.7-2.2,2.5-2.2,3.9c0,1-6.7,59.9-2.9,88.7
					C2019.6,1645.1,2323.7,1481.9,2323.7,1481.9L2323.7,1481.9z"/>
				<path class="st10" d="M2451.4,1419.3c-15.3,7.4-45.7,24.4-77.9,42.9c-0.1,13.9-2,96.7-2,105.8c26.8-14.8,86.5-32.7,87.1-139.7
					C2459.1,1424.3,2458.4,1416,2451.4,1419.3L2451.4,1419.3z"/>
			</g>
		</g>
		<g>
			<defs>
				<path id="SVGID_3_" d="M554.3-75.7c-9.9,5.7-15.6,18.4-1.9,15.1L616-93.9c45.4-26.1,101.7-59.2,101.7-59.2s12.2-6.5,24.9-13.7
					c21.1-12,43.6-35,14.8-25C711.3-175.9,566.6-82.8,554.3-75.7L554.3-75.7z"/>
			</defs>
			<clipPath id="SVGID_4_">
				<use xlink:href="#SVGID_3_"  style="overflow:visible;"/>
			</clipPath>
			<g transform="translate(-1692,-1584)" class="st11">
				<path class="st9" d="M2246.3,1508.3c-9.9,5.7-15.6,18.4-1.9,15.1l63.6-33.4c45.4-26,101.7-59.2,101.7-59.2s12.2-6.5,24.9-13.7
					c21.1-12,43.6-35,14.8-25C2403.3,1408.1,2258.6,1501.2,2246.3,1508.3L2246.3,1508.3z"/>
			</g>
		</g>
		<g>
			<defs>
				<path id="SVGID_5_" d="M1016.8-89.2c-12.1-6.4-156.7-92.8-200.3-104.7c-27.2-7.4-17.7,10.4,3,21.2c12.5,6.5,24.5,12.3,24.5,12.3
					s120.2,65,149.5,78.5C1022.7-68.5,1028.9-82.8,1016.8-89.2L1016.8-89.2z"/>
			</defs>
			<clipPath id="SVGID_6_">
				<use xlink:href="#SVGID_5_"  style="overflow:visible;"/>
			</clipPath>
			<g transform="translate(-1692,-1584)" class="st12">
				<path class="st9" d="M2708.8,1494.8c-12.1-6.4-156.7-92.8-200.3-104.7c-27.2-7.4-17.7,10.4,3,21.2c12.5,6.5,24.5,12.3,24.5,12.3
					s120.2,65,149.5,78.5C2714.7,1515.5,2720.9,1501.2,2708.8,1494.8L2708.8,1494.8z"/>
				<path class="st10" d="M2119.9,1559.9c0-5.3,169.3-119.7,319.6-158.9c120.4-31.4,109.7,107.2,108.8,105.3
					c-0.4-1.5,165.7-139.2,164.8-140.1l-47.7-30.8l-190.6-111c-2-2.7-5.7-3.2-9.9-0.8c-0.4,0.2-0.8,0.5-1.2,0.8l-124.4,71.7
					l-256.7,148.2c-4.3,2.5-35.9,19.6-57.6,33.3c-11.7,7.4-11.5,22.8,1.6,31.3C2060.1,1530.8,2119.9,1567.9,2119.9,1559.9
					L2119.9,1559.9z"/>
				<path class="st10" d="M2497.9,1271l-210,230l36.4-19.1V1624l251.4,135.7c35.2-22.6,71-46.8,105.7-71.5
					c40.7-29,39.5-171.6,42.2-178.3c6.1-13.8,9.6-28.2,9.6-41.5c0-11.5,0.3-52.6-2-57.6c-0.5-1.8-1.3-3.2-2.4-4.2l0.3-0.9
					L2497.9,1271L2497.9,1271z"/>
				<path class="st10" d="M2719.7,1413.5l-224.3-131.8L2302,1493.1l21.6-11.3v142.1l240,129.5c37.4-24,75.9-49.9,113.4-76.6
					c13.2-9.4,25.9-67.1,26.4-82.2c0.3-10.1,6.2-82.3,7.3-85c4.8-10.9,7.8-22.7,7.8-33.4C2718.5,1472.9,2721.7,1412.4,2719.7,1413.5
					L2719.7,1413.5z"/>
				<path class="st10" d="M2014.8,1638c0.2,1.2,0.3,3.2,0.3,5.7l308.8-162.1v142.1l11.2,6.1c38.4-24.6,77.5-51,115.2-77.8
					c40.7-29,39.5-171.6,42.2-178.3c6.1-13.8,9.6-28.2,9.6-41.5c0-11.5,0.3-52.6-2-57.6c-1.6-5.8-7-7.7-13.4-4c-0.5,0.3-1,0.6-1.5,1
					l-150,86.5l-309.7,178.8c-8.1,4.7-14.6,15.7-14.6,24.5C2010.8,1562.3,2010.9,1608.5,2014.8,1638L2014.8,1638z"/>
				<path class="st10" d="M2323.7,1481.9v141.7c40.4-25.6,82.1-53.6,122.8-82.6c13.2-9.4,25.9-67.1,26.4-82.2
					c0.3-10.1,6.2-82.3,7.3-85c4.8-10.9,7.8-22.7,7.8-33.4c0-3.3-0.8-35.6-1.2-52.5c-0.3-1.5-0.6-3.6-2.6-2.4
					c-1.1,0.8-149.3,86.1-149.3,86.1L2026,1550c-0.6,0.4-1,0.6-1.4,0.9c-1.2,0.7-2.2,2.5-2.2,3.9c0,1-6.7,59.9-2.9,88.7
					C2019.6,1645.1,2323.7,1481.9,2323.7,1481.9L2323.7,1481.9z"/>
			</g>
		</g>
		<path class="st13" d="M998.9,32.8c3.3-13.3-2.1-86.5,2.1-91.7c3.5-4.4-192.1-109.6-192.2-109.3c-4.1,5.1-8.4,80.6-11.7,93.9
			c-1.1,4.4-2.4,12.9-5.1,19.6L992.7,48.5C995.4,43.2,997.7,37.8,998.9,32.8L998.9,32.8z"/>
		<g>
			<defs>
				<path id="SVGID_7_" d="M688.5,75.9l13.4-8.1c0,0,12.3-6.3,25.2-13.3c21.3-11.6,44.2-34.2,15.3-24.7
					c-13.1,4.3-39.7,18.4-71.5,36.6L688.5,75.9L688.5,75.9z"/>
			</defs>
			<use xlink:href="#SVGID_7_"  style="overflow:visible;fill:#2A4D69;"/>
			<clipPath id="SVGID_8_">
				<use xlink:href="#SVGID_7_"  style="overflow:visible;"/>
			</clipPath>
			<g transform="translate(-1693.6,-1584)" class="st14">
				<path class="st9" d="M2382.1,1659.9l13.4-8.1c0,0,12.3-6.3,25.2-13.3c21.3-11.6,44.2-34.2,15.3-24.7
					c-13.1,4.3-39.7,18.4-71.5,36.6L2382.1,1659.9L2382.1,1659.9z"/>
				<path class="st9" d="M2272.4,1780.5c1.2,4.8,157.6-89.1,157.6-89.1s2.6,1.3,6.5-0.7c3.9-2-0.7-94.6-0.7-94.6l-168.2,93.8
					L2272.4,1780.5L2272.4,1780.5z"/>
				<path class="st10" d="M2267.9,1792.1c0.3-5.8-6.5-6-5.9-7.4c1.5-5.5,250.8-145.8,251.3-145.5l12.9,7.6L2282,1786.8
					L2267.9,1792.1L2267.9,1792.1z"/>
				<path class="st10" d="M2489.1,1271l-210,230l36.4-19.1V1624l251.4,135.7c35.2-22.6,71-46.8,105.7-71.5
					c40.7-29,39.5-171.6,42.2-178.3c6.1-13.8,9.6-28.2,9.6-41.5c0-11.5,0.3-52.6-2-57.6c-0.5-1.8-1.3-3.2-2.4-4.2l0.3-0.9
					L2489.1,1271L2489.1,1271z"/>
				<path class="st10" d="M2711,1413.5l-224.3-131.8l-193.5,211.4l21.6-11.3v142.1l240,129.5c37.4-24,75.9-49.9,113.4-76.6
					c13.2-9.4,25.9-67.1,26.4-82.2c0.3-10.1,6.2-82.3,7.3-85c4.8-10.9,7.8-22.7,7.8-33.4C2709.8,1472.9,2713,1412.4,2711,1413.5
					L2711,1413.5z"/>
				<path class="st10" d="M2006,1638c0.2,1.2,0.3,3.2,0.3,5.7l308.8-162.1v142.1l11.2,6.1c38.4-24.6,77.5-51,115.2-77.8
					c40.7-29,39.5-171.6,42.2-178.3c6.1-13.8,9.6-28.2,9.6-41.5c0-11.5,0.3-52.6-2-57.6c-1.6-5.8-7-7.7-13.4-4c-0.5,0.3-1,0.6-1.5,1
					l-150,86.5l-309.7,178.8c-8.1,4.7-14.6,15.7-14.6,24.5C2002.1,1562.3,2002.2,1608.5,2006,1638L2006,1638z"/>
				<path class="st10" d="M2315,1481.9v141.7c40.4-25.6,82.1-53.6,122.8-82.6c13.2-9.4,25.9-67.1,26.4-82.2
					c0.3-10.1,6.2-82.3,7.3-85c4.8-10.9,7.8-22.7,7.8-33.4c0-3.3-0.8-35.6-1.2-52.5c-0.3-1.5-0.6-3.6-2.6-2.4
					c-1.1,0.8-149.3,86.1-149.3,86.1l-309,178.4c-0.6,0.4-1,0.6-1.4,0.9c-1.2,0.7-2.2,2.5-2.2,3.9c0,1-6.7,59.9-2.9,88.7
					C2010.9,1645.1,2315,1481.9,2315,1481.9L2315,1481.9z"/>
			</g>
		</g>
		<g>
			<defs>
				<path id="SVGID_9_" d="M745.9,101.7l13.2-8c0,0,12.3-6.3,25.2-13.3c21.3-11.6,44.2-34.2,15.3-24.7
					c-13.1,4.3-39.6,18.3-71.4,36.5L745.9,101.7L745.9,101.7z"/>
			</defs>
			<use xlink:href="#SVGID_9_"  style="overflow:visible;fill:#2A4D69;"/>
			<clipPath id="SVGID_10_">
				<use xlink:href="#SVGID_9_"  style="overflow:visible;"/>
			</clipPath>
			<g transform="translate(-1692,-1584)" class="st15">
				<path class="st9" d="M2437.9,1685.7l13.2-8c0,0,12.3-6.3,25.2-13.3c21.3-11.6,44.2-34.2,15.3-24.7
					c-13.1,4.3-39.6,18.3-71.4,36.5L2437.9,1685.7L2437.9,1685.7z"/>
			</g>
		</g>
		<g>
			<defs>
				<path id="SVGID_11_" d="M793.6,126.9l13-7.9c0,0,12.3-6.3,25.2-13.3C853.1,94,876,71.4,847.1,80.9c-13,4.3-39.5,18.3-71.2,36.4
					L793.6,126.9L793.6,126.9z"/>
			</defs>
			<clipPath id="SVGID_12_">
				<use xlink:href="#SVGID_11_"  style="overflow:visible;"/>
			</clipPath>
			<g transform="translate(-1692,-1584)" class="st16">
				<path class="st9" d="M2485.6,1710.9l13-7.9c0,0,12.3-6.3,25.2-13.3c21.3-11.6,44.2-34.2,15.3-24.7c-13,4.3-39.5,18.3-71.2,36.4
					L2485.6,1710.9L2485.6,1710.9z"/>
			</g>
		</g>
		<path class="st17" d="M652-34.6c-0.1,8.6,7.2,17.2,8.6-3.2c1.4-20.3,2.1-105.6,2.1-105.6s0.4-8.3,0.6-17.2
			c0.3-14.6-4.5-33.5-8.3-15.5C648.9-147.1,652.1-43.2,652-34.6L652-34.6z"/>
		<g>
			<defs>
				<path id="SVGID_13_" d="M840.7,152l12.9-7.8c0,0,12.3-6.3,25.2-13.3c21.3-11.6,44.2-34.2,15.3-24.7c-13,4.3-39.4,18.2-71,36.3
					L840.7,152L840.7,152z"/>
			</defs>
			<use xlink:href="#SVGID_13_"  style="overflow:visible;fill:#2A4D69;"/>
			<clipPath id="SVGID_14_">
				<use xlink:href="#SVGID_13_"  style="overflow:visible;"/>
			</clipPath>
			<g transform="translate(-1692,-1584)" class="st18">
				<path class="st9" d="M2532.7,1736l12.9-7.8c0,0,12.3-6.3,25.2-13.3c21.3-11.6,44.2-34.2,15.3-24.7c-13,4.3-39.4,18.2-71,36.3
					L2532.7,1736L2532.7,1736z"/>
			</g>
		</g>
		<path class="st13" d="M1006.8-123.6c0,0,23.7,13.3,23.4-13.5c-0.2-13.3-12.5-30.7-20.7-35.4c-8.1-4.7-23.7-12.5-23.7,11.4
			C985.7-137.4,999.6-128.2,1006.8-123.6L1006.8-123.6z"/>
		<g>
			<defs>
				<path id="SVGID_15_" d="M992.2-148.5c-6,0.5,12.1,26,22.3,23.6C1039.2-130.6,1002.9-149.5,992.2-148.5z"/>
			</defs>
			<clipPath id="SVGID_16_">
				<use xlink:href="#SVGID_15_"  style="overflow:visible;"/>
			</clipPath>
			<g transform="translate(-1692,-1584)" class="st19">
				<path class="st20" d="M2684.2,1435.5c-6,0.5,12.1,26,22.3,23.6C2731.2,1453.4,2694.9,1434.5,2684.2,1435.5z"/>
			</g>
		</g>
		<path class="st13" d="M848.2-214.3c0,0,23.7,13.3,23.4-13.5c-0.2-13.3-12.5-30.7-20.7-35.4s-23.7-12.5-23.7,11.4
			C827.1-228,841-218.8,848.2-214.3L848.2-214.3z"/>
		<g>
			<defs>
				<path id="SVGID_17_" d="M833.6-238.8c-6,0.5,12.1,26,22.3,23.6C880.6-220.9,844.2-239.8,833.6-238.8z"/>
			</defs>
			<clipPath id="SVGID_18_">
				<use xlink:href="#SVGID_17_"  style="overflow:visible;"/>
			</clipPath>
			<g transform="translate(-1692,-1584)" class="st21">
				<path class="st20" d="M2525.6,1345.2c-6,0.5,12.1,26,22.3,23.6C2572.6,1363.1,2536.2,1344.2,2525.6,1345.2z"/>
			</g>
		</g>
		<path class="st6" d="M414.8-37c15.3-9.7,45.1-29.4,45.1-80.7c0-51.3-33.5-34.5-51-24.4C391.5-132,364.9-94.6,364.6-66
			C363.8-8.4,414.8-37,414.8-37L414.8-37z"/>
		<path class="st13" d="M412.7-68.6c7.1-4.5,21-13.7,21-37.6c0-23.9-15.6-16.1-23.7-11.4c-8.1,4.7-20.5,22.1-20.7,35.4
			C388.9-55.3,412.7-68.6,412.7-68.6L412.7-68.6z"/>
		<g>
			<defs>
				<path id="SVGID_19_" d="M426.6-93.7c-10.7-1-47,17.9-22.3,23.6C414.5-67.7,432.6-93.2,426.6-93.7z"/>
			</defs>
			<clipPath id="SVGID_20_">
				<use xlink:href="#SVGID_19_"  style="overflow:visible;"/>
			</clipPath>
			<g transform="translate(-1692,-1584)" class="st22">
				<path class="st20" d="M2118.6,1490.3c-10.7-1-47,17.9-22.3,23.6C2106.5,1516.3,2124.6,1490.8,2118.6,1490.3z"/>
			</g>
		</g>
		<path class="st6" d="M698.7-201c15.3-9.7,45.1-29.4,45.1-80.7c0-51.3-33.5-34.5-51-24.4s-44.1,47.5-44.4,76.1
			C647.8-172.4,698.7-201,698.7-201L698.7-201z"/>
		<path class="st13" d="M696.7-232.5c7.1-4.5,21-13.7,21-37.6c0-23.9-15.6-16.1-23.7-11.4c-8.1,4.7-20.5,22.1-20.7,35.4
			C672.9-219.2,696.7-232.5,696.7-232.5L696.7-232.5z"/>
		<g>
			<defs>
				<path id="SVGID_21_" d="M710.4-257.5c-10.7-1-47,17.9-22.3,23.6C698.3-231.6,716.4-257,710.4-257.5z"/>
			</defs>
			<clipPath id="SVGID_22_">
				<use xlink:href="#SVGID_21_"  style="overflow:visible;"/>
			</clipPath>
			<g transform="translate(-1692,-1584)" class="st23">
				<path class="st20" d="M2402.4,1326.5c-10.7-1-47,17.9-22.3,23.6C2390.3,1352.4,2408.4,1327,2402.4,1326.5z"/>
			</g>
		</g>
		<g>
			<defs>
				<path id="SVGID_23_" d="M998.7,74C986.5,67.6,842-18.8,798.4-30.7c-27.2-7.4-17.7,10.4,3,21.2C814-3,825.9,2.7,825.9,2.7
					s120.2,65,149.5,78.5C1004.7,94.6,1010.9,80.4,998.7,74L998.7,74z"/>
			</defs>
			<clipPath id="SVGID_24_">
				<use xlink:href="#SVGID_23_"  style="overflow:visible;"/>
			</clipPath>
			<g transform="translate(-1692,-1584)" class="st24">
				<path class="st9" d="M2690.7,1658c-12.1-6.4-156.7-92.8-200.3-104.7c-27.2-7.4-17.7,10.4,3,21.2c12.5,6.5,24.5,12.3,24.5,12.3
					s120.2,65,149.5,78.5C2696.7,1678.6,2702.9,1664.4,2690.7,1658L2690.7,1658z"/>
			</g>
		</g>
		<path class="st3" d="M641,41.9l-8.6,10.8L884,176.6c1.9-1.2,5.3-4.4,2.7-9.3c-0.6-1.7-1.5-3.1-2.7-4.1l0.2-0.9L641,41.9L641,41.9z
			"/>
		<path class="st3" d="M627.1,37.3l3.2,9.8l9.8-2.2l1.4-154.4c-2-1.1-18.1-28.4-18.4-27l4.5,36.5L627.1,37.3L627.1,37.3z"/>
		<path class="st3" d="M628.1,44.6c0,5.4,4.2,9.7,9.4,9.7s9.4-4.3,9.4-9.7s-4.2-9.7-9.4-9.7S628.1,39.3,628.1,44.6z"/>
		<g>
			<defs>
				<path id="SVGID_25_" d="M978.1,46.2c5.4,2.1,9.6,1.6,12.9-0.1c4.7,3.8,13.9,1.1,13.9,1.1s-0.1-56.5-1.5-77.4
					c-1.2-16-3-38-4.2-44c-3.1-16.2-14.4,7.6-13.5,14.5c0.5,3.9,1.1,25.5,2.5,38.6c1.5,4.5,0.6,28.8,0.2,45.9
					c-20-10.6-59.3-31.2-89.2-46.2c2.7-18.2,6.7-45.7,7.9-59.1c1.3-16,3-38,2.8-44.1c-0.6-16.5-15.4,5.3-15.6,12.2
					c-0.1,3.9-2.9,25.4-3.6,38.5l0.7-0.3c0.1,4.9-4.6,28.3-7.6,45.1c-3.7-1.8-7.1-3.4-10.1-4.8c-27.2-12.5-64.4-29.4-75.2-33.2
					c-29-10.3,0.5,23.9,12.4,28.8c6.7,2.8,42.5,20.9,65,30.6l-0.1-1.2C888.4-4.1,966.3,41.6,978.1,46.2L978.1,46.2z"/>
			</defs>
			<clipPath id="SVGID_26_">
				<use xlink:href="#SVGID_25_"  style="overflow:visible;"/>
			</clipPath>
			<g transform="translate(-1692,-1584)" class="st25">
				<path class="st26" d="M2670.1,1630.2c5.4,2.1,9.6,1.6,12.9-0.1c4.7,3.8,13.9,1.1,13.9,1.1s-0.1-56.5-1.5-77.4
					c-1.2-16-3-38-4.2-44c-3.1-16.2-14.4,7.6-13.5,14.5c0.5,3.9,1.1,25.5,2.5,38.6c1.5,4.5,0.6,28.8,0.2,45.9
					c-20-10.6-59.3-31.2-89.2-46.2c2.7-18.2,6.7-45.7,7.9-59.1c1.3-16,3-38,2.8-44.1c-0.6-16.5-15.4,5.3-15.6,12.2
					c-0.1,3.9-2.9,25.4-3.6,38.5l0.7-0.3c0.1,4.9-4.6,28.3-7.6,45.1c-3.7-1.8-7.1-3.4-10.1-4.8c-27.2-12.5-64.4-29.4-75.2-33.2
					c-29-10.3,0.5,23.9,12.4,28.8c6.7,2.8,42.5,20.9,65,30.6l-0.1-1.2C2580.4,1579.9,2658.3,1625.6,2670.1,1630.2L2670.1,1630.2z"/>
			</g>
		</g>
		<path class="st9" d="M889.4,12.2L912-128.3l12.4,8.2L900.8,18L889.4,12.2L889.4,12.2z"/>
		<path class="st3" d="M327.6,59.3C328.4,55.8,593.3-92,631-113.4c4.8-2.7,0,12.4,0,12.4L330.2,64.4c0,0-4.9-1.3-5.6-2.7
			C324,60.7,327.4,59.7,327.6,59.3L327.6,59.3z"/>
		<path class="st3" d="M585.5,208.4c-0.3-5.8,0.4-6.7-0.2-8.1c-1.5-5.5-252.8-138.5-245.2-144.8l-12.9,7.6l244.1,139.9L585.5,208.4
			L585.5,208.4z"/>
		<path class="st3" d="M589.7,198.2c3-3.3,4-56,2.6-86.1c-0.3-7-7.7-6.3-7.7-6.3l-3.3,2.3l0.2,94.6
			C581.5,202.7,588.9,199.4,589.7,198.2L589.7,198.2z"/>
		<path class="st3" d="M590.4,115.2c-0.2-5.8-0.5-10.2-1.1-11.6c-1.4-5.5-169.7-99.8-170.1-99.5L412,8.8l168.9,98.9L590.4,115.2
			L590.4,115.2z"/>
		<path class="st3" d="M584.6,109.7c4.4,0.7,47.6-26,88.2-46.3c5.7-4.1-12.3-4.4-12.3-4.4l-82.7,44.9
			C577.7,103.8,583.1,109.7,584.6,109.7L584.6,109.7z"/>
		<path class="st27" d="M735.2,347.6c2.2-44.4-0.2-168.6-4.6-163.2c3.9-4.7-115.1-66.1-130.2-70.1c-3.7-1-6.5,0.9-6.3,2.9
			c-40.9,21.9-131.4,81.2-125.3,81.8c-6.1-0.7-0.7,164-0.3,163.4c-6.5,10.7,132.6,81.3,137.2,69.6c-4.1,10.6,85.9-47.1,125.7-78.4
			c2.6,1,3.8,1.2,2.8,0.1c0.4,0.4,0.6-0.7,0.8-3.1c1.2-1.1,2.1-2,2.4-2.5C737,348.3,736.2,348,735.2,347.6L735.2,347.6z"/>
		<path class="st28" d="M601.1,126.7c3.2-2.1,6.4,157.8,2.8,153.2c3.6,4.6,127.7,67.2,122.7,61.9c5,5.3,1.6-158.9-3-153.1
			C728.2,183.1,606.5,121.6,601.1,126.7L601.1,126.7z"/>
		<path class="st29" d="M593.9,127.1c2.9-6.5-124.4,75.3-117.9,75.9c-6.5-0.6-3.2,163.5,2.9,153.1c-6.1,10.5,121.3-71.3,117.9-75.9
			C600.2,284.8,596.9,120.6,593.9,127.1L593.9,127.1z"/>
		<path class="st30" d="M723.4,348.4c-0.8,2.5-119.5-57.5-122.9-62.2c3.5,4.8-123.2,81.5-123.2,81.5c12,8,119,64.8,129.6,58.6
			C614.3,422,725,355.6,723.4,348.4L723.4,348.4z"/>
		<path class="st31" d="M598.9,207.2l131.6,61.1l3-6.5l-133.4-61.9l-1.5,3.3l-1.9-3.1l-64.8,39l-4.5-74.3l-7.2,0.4l4.7,78.1
			l-58.1,35l3.7,6.2l54.8-33l5,83.7l60.1,30.7l-49.9,35l4.1,5.9l53-37.2l59,30.1l3.3-6.4l-55.6-28.4l62.1-43.6l-4.1-5.9L597.4,361
			l-59.9-30.6l-5-83.3L598.9,207.2L598.9,207.2z"/>
		<path class="st31" d="M660.3,314.2l8.7,0.3l0.7-166.6l-8.7-0.3L660.3,314.2L660.3,314.2z"/>
		<path class="st31" d="M890.2,268.2c2-19.7,3.9-55.2,5.1-88.2c-10.9-5.7-18.6-9.6-19.2-9.2L679,75.2c-28,16.3-50.1,30.2-47,30.8
			c-6-1-9.3,163.8-8.8,163.2c-7,10.4,128.2,88.2,133.4,76.7c-4.6,10.3,88.2-42.5,129.6-71.7c2.6,1.2,3.7,1.4,2.8,0.2
			c0.3,0.4,0.7-0.7,1-3c1.3-1,2.2-1.8,2.5-2.4C891.9,268.9,891.2,268.6,890.2,268.2L890.2,268.2z"/>
		<path class="st28" d="M767.7,118.3c-1.3,39.1-3.4,77.8-5.1,75.5c3.4,4.8,124,73.8,119.3,68.3c2.5,3,5.2-43.2,6.4-85.6
			c-7.1-3.7-11.8-5.9-12.2-5.6L767.7,118.3L767.7,118.3z"/>
		<path class="st29" d="M687.2,79.3c-27.3,15.8-51.1,30.6-48.3,31c-6.4-1-11.7,163.1-5.1,153c-6.6,10.1,124.8-64.9,121.7-69.6
			c1.6,2.4,3.7-38.6,5-78.8L687.2,79.3L687.2,79.3z"/>
		<path class="st30" d="M878.5,268.4c-0.9,2.5-116.3-63.7-119.4-68.5c3.2,5-127.3,74.9-127.3,74.9c11.6,8.6,115.4,70.9,126.4,65.3
			C765.6,336.2,879.6,275.6,878.5,268.4z"/>
		<path class="st31" d="M761.5,120.7L892,178.8l1.2,3.4l-71.8-38l-59.2-28.7l-1.6-0.8l-1.6-0.8L693.1,149l-0.5-67.2l-7.2-3.5
			l0.6,74.6l-59.8,31.9l3.4,6.4L686,161l0.6,83.8l58.4,33.8L693.4,311l3.8,6.1l54.9-34.4l57.3,33.2l3.6-6.2l-54-31.3l64.3-40.3
			l-3.8-6.1L752,274.3l-58.2-33.7l-0.6-83.5L761.5,120.7L761.5,120.7z"/>
		<path class="st31" d="M817.1,230.8l8.6,0.8l4.7-82.9l-8.4-4.1L817.1,230.8L817.1,230.8z"/>
		<path class="st31" d="M316.8,254c37.8,23.4,147.5,81.6,144.9,75.1c2.3,5.7,113.6-68.7,124.4-79.9c2.7-2.8,2.4-6.1,0.5-6.9
			c0.6-46.4-7.3-154.3-10.8-149.3c3.6-5-143.1-80.1-142.8-79.5c-6.2-10.9-135.4,76.6-127.4,86.2c-7.3-8.7-0.5,97.9,7.6,147.9
			c-2.2,1.8-2.9,2.7-1.4,2.4c-0.5,0.1,0.3,0.9,2.3,2.2c0.4,1.6,0.7,2.7,1,3.3C315.4,255.3,316,254.7,316.8,254L316.8,254z"/>
		<path class="st28" d="M575,243.9c0.3,3.8-141.1-70.9-135.4-71.8c-5.7,0.9-120.7,79.1-113.7,77.3c-7.1,1.8,138.2,78.5,135.3,71.6
			C464.1,327.7,576.9,251.1,575,243.9L575,243.9z"/>
		<path class="st29" d="M578.1,237.4c4.3,5.7-5.5-145.3-9.2-139.9c3.7-5.4-141.5-82.1-135.3-71.7c-6.2-10.4,3.6,140.6,9.2,139.9
			C437.2,166.4,582.4,243.1,578.1,237.4z"/>
		<path class="st30" d="M321.8,243.4c-1.8-1.9,108.2-76.6,114-77.3c-5.9,0.7-11.5-147.3-11.5-147.3c-12.8,6.7-114.3,72.7-114.1,85
			C310.3,112.3,314.8,241.3,321.8,243.4L321.8,243.4z"/>
		<path class="st31" d="M505.7,203l-117.2,85.5l4.3,5.8l118.8-86.6l-2.1-2.9l3.6-0.1l-2.7-75.6l67.2,32.1l3.1-6.5L509.9,121
			l-2.4-67.8l-7.2,0.3l2.3,64L427,81.3L371,119l-6.4-60.6l-7.2,0.8l6.8,64.4l-54.9,37l4,6l51.8-34.8l8,75.4l7.2-0.8l-8.4-79.2
			l55.8-37.5l75.3,36L505.7,203L505.7,203z"/>
		<path class="st31" d="M382.4,204.8l-4.5,7.4l145.4,81.4l4.5-7.4L382.4,204.8z"/>
		<path class="st31" d="M705.2,153.5c1.5-14.8,3-38.6,4.1-63.5l-76.9-37.3l-5.4-16l0.4-99.6c-21-12-39.3-21.8-44.6-23.5
			c-3.7-1.2-6.6,0.5-6.4,2.6c-42,19.8-135.5,74.2-129.4,75.2c-6-1-9.3,163.8-8.8,163.2c-7,10.4,128.2,88.2,133.4,76.7
			c-4.6,10.3,88.2-42.5,129.6-71.7c2.6,1.2,3.7,1.4,2.8,0.2c0.3,0.4,0.7-0.7,1-3c1.3-1,2.2-1.8,2.5-2.4
			C706.9,154.2,706.2,153.9,705.2,153.5L705.2,153.5z"/>
		<path class="st28" d="M582.9-74.2c3.3-1.9-1.9,157.9-5.2,153.2c3.4,4.8,124,73.8,119.3,68.3c2,2.4,4.2-27,5.5-60.6l-70.1-34
			l-5.4-16l0.4-91.1C604.7-66.8,585.1-76.1,582.9-74.2L582.9-74.2z"/>
		<path class="st29" d="M575.7-74.1C579-80.5,447.6-5.5,454-4.5c-6.4-1-11.7,163.1-5.1,153c-6.6,10.1,124.8-64.9,121.7-69.6
			C573.7,83.6,579-80.5,575.7-74.1L575.7-74.1z"/>
		<path class="st30" d="M693.5,153.6c-0.9,2.5-116.3-63.7-119.4-68.5c3.2,5-127.3,74.9-127.3,74.9c11.6,8.6,115.4,70.9,126.4,65.3
			C580.7,221.4,694.7,160.9,693.5,153.6L693.5,153.6z"/>
		<path class="st31" d="M576.6,6.1L627,32.8l0.1-8.2L578.3-1.2L576.6,2l-1.7-3.2l-66.7,35.6l-0.6-74.5l-7.2,0.1l0.6,78.2l-59.8,31.9
			l3.4,6.4L501,46.4l0.6,83.8l58.4,33.8l-51.7,32.4l3.8,6.1l54.9-34.4l57.3,33.2l3.6-6.2l-54-31.3l64.3-40.3l-3.8-6.1L567,159.7
			L508.8,126l-0.6-83.5L576.6,6.1L576.6,6.1z"/>
		<path class="st31" d="M632.2,116.1l8.6,0.8l3.3-58.5l-8.4-4.1L632.2,116.1L632.2,116.1z"/>
		<path class="st3" d="M641,41.9l-8.6,10.8L884,176.6c1.9-1.2,5.3-4.4,2.7-9.3c-0.6-1.7-1.5-3.1-2.7-4.1l0.2-0.9L641,41.9L641,41.9z
			"/>
		<path class="st31" d="M513.8,469.1c-2,5.8,90.9-49.6,128.5-76.8c1.7,1.1,4.6-0.6,5.4-4.4c3-15.3,0.1-149.1-5.9-147.8
			c6.8-1.6-103.8-58.2-144.6-75.6c0.1-1.1,0.2-1.8,0.3-2.3c0.4,0,0.6,0.1,0.7,0.2c-0.3-0.8-0.5-0.8-0.7-0.2c-0.7,0.1-1.8,0.4-3.3,1
			c-2.2-0.8-3.3-1.1-3.1-0.6c-0.6-1.4-0.9-0.3-1.2,2.5c-45.6,22.1-136.8,77.7-125.5,78.6c-12.5-1.1-10,154.9,2.4,153.8
			C366.1,397.8,511.8,474.8,513.8,469.1L513.8,469.1z"/>
		<path class="st28" d="M636.8,382c7.3,0-138.8-75-136.3-69.8c-2.5-5.2-4.5-144.3-1.9-137.5c-2.6-6.8,143.5,68.2,136.3,69.8
			C642.2,243,644.1,382,636.8,382z"/>
		<path class="st29" d="M633.5,388.2c7.1,0.2-122.2,78.8-119.9,72.7c-2.3,6.1-148.4-68.8-136.3-69.7
			c-12.1,0.9,117.2-77.7,119.9-72.7C494.5,313.5,640.6,388.4,633.5,388.2z"/>
		<path class="st30" d="M491.6,175c-2.9-6.8-0.9,132.2,1.9,137.5c-2.8-5.2-127.3,75-127.3,75c-1.9-14.3-6-135.3,4.2-142.2
			C377.5,240.5,488.7,168.2,491.6,175L491.6,175z"/>
		<path class="st31" d="M563.8,348.6l-65,42.1l-72.7-41l-1.3-67.2l69.7-38.6l-3.5-6.3l-66.4,36.7l-1.2-62.4l-7.2,0.1l1.2,66.2
			l-56.7,31.4l3.5,6.3l53.3-29.5l1.3,67.5l73,41.2L438.2,430l3.9,6.1l56.9-36.9l68.1,38.5l3.5-6.3l-64.9-36.6l63.5-41.1l-2-3
			l3.6,0.1l2.8-147l-7.2-0.1L563.8,348.6L563.8,348.6z"/>
		<path class="st31" d="M772.2,202.1c6-1-87.5-55.4-129.4-75.2c0.1-2.1-2.7-3.8-6.4-2.6c-14.9,4.8-130.5,72.3-126.4,76.8
			c-4.7-5.2-0.6,119,4,163.2c-1,0.4-1.7,0.7-2.1,0.8c-0.2-0.3-0.3-0.6-0.1-0.7c-0.5,0.6-0.5,0.8,0.1,0.7c0.4,0.5,1.2,1.4,2.5,2.4
			c0.3,2.3,0.7,3.4,1,3c-1,1.2,0.2,1,2.8-0.2c41.4,29.2,134.3,82,129.6,71.7c5.2,11.5,140.4-66.3,133.4-76.7
			C781.5,365.9,778.2,201.1,772.2,202.1L772.2,202.1z"/>
		<path class="st28" d="M636.4,136.9c-3.6-6.3,1.7,157.8,5.1,153c-3.4,4.8-124,73.8-119.3,68.3c-4.7,5.6-9.9-158.6-5.1-153
			C512.2,199.6,632.9,130.5,636.4,136.9z"/>
		<path class="st29" d="M643.4,136.7c-3.3-6.4,128.2,68.7,121.7,69.6c6.4-1,11.7,163.1,5.1,153c6.6,10.1-124.8-64.9-121.7-69.6
			C645.5,294.5,640.2,130.4,643.4,136.7z"/>
		<path class="st30" d="M525.8,364.2c-4.6,5.8,116.1-63.3,119.3-68.3c-3.2,5,127.3,74.9,127.3,74.9c-11.6,8.6-115.4,70.9-126.4,65.3
			C638.4,432.3,521.3,370,525.8,364.2L525.8,364.2z"/>
		<path class="st31" d="M642.6,216.9l68.4,36.5l-0.6,83.5l-58.2,33.7l-67.5-42.3l-3.8,6.1l64.3,40.3l-54,31.3l3.6,6.2l57.3-33.2
			l54.9,34.4l3.8-6.1l-51.7-32.3l58.4-33.8l0.6-83.8l56.5,30.1l3.4-6.4L718.2,249l0.6-78.2l-7.2-0.1l-0.6,74.5l-66.7-35.6l-1.7,3.2
			l-1.7-3.2L511,278.4l3.4,6.4L642.6,216.9L642.6,216.9z"/>
		<path class="st31" d="M582.4,162.1l-7.2,0.1l1.3,170.2l7.2-4.2L582.4,162.1L582.4,162.1z"/>
	</g>
</g>
</svg>
